<mxfile host="app.diagrams.net" modified="2022-03-21T11:26:08.480Z" agent="5.0 (X11; Linux x86_64) AppleWebKit/537.36 (KHTML, like Gecko) Chrome/99.0.4844.51 Safari/537.36" etag="0UzND8R1YRSqmq6qortn" version="17.1.3" type="github">
  <diagram id="u2Ygboj-zfLdWeffpqkM" name="Page-1">
    <mxGraphModel dx="1138" dy="604" grid="1" gridSize="10" guides="1" tooltips="1" connect="1" arrows="1" fold="1" page="1" pageScale="1" pageWidth="850" pageHeight="1100" math="0" shadow="0">
      <root>
        <mxCell id="0" />
        <mxCell id="1" parent="0" />
        <mxCell id="QgBrxl4_QCWRq82KucZh-1" value="" style="rounded=0;whiteSpace=wrap;html=1;" vertex="1" parent="1">
          <mxGeometry x="20" y="30" width="270" height="250" as="geometry" />
        </mxCell>
        <mxCell id="QgBrxl4_QCWRq82KucZh-2" value="Conference" style="text;html=1;strokeColor=default;fillColor=none;align=center;verticalAlign=middle;whiteSpace=wrap;rounded=0;" vertex="1" parent="1">
          <mxGeometry x="20" y="30" width="270" height="30" as="geometry" />
        </mxCell>
        <mxCell id="QgBrxl4_QCWRq82KucZh-3" value="ConferenceID" style="text;html=1;strokeColor=none;fillColor=none;align=left;verticalAlign=middle;whiteSpace=wrap;rounded=0;spacingLeft=5;fontStyle=1" vertex="1" parent="1">
          <mxGeometry x="90" y="70" width="200" height="20" as="geometry" />
        </mxCell>
        <mxCell id="QgBrxl4_QCWRq82KucZh-5" value="Name" style="text;html=1;strokeColor=none;fillColor=none;align=left;verticalAlign=middle;whiteSpace=wrap;rounded=0;spacingLeft=5;" vertex="1" parent="1">
          <mxGeometry x="90" y="90" width="200" height="20" as="geometry" />
        </mxCell>
        <mxCell id="QgBrxl4_QCWRq82KucZh-6" value="URL" style="text;html=1;strokeColor=none;fillColor=none;align=left;verticalAlign=middle;whiteSpace=wrap;rounded=0;spacingLeft=5;" vertex="1" parent="1">
          <mxGeometry x="90" y="110" width="200" height="20" as="geometry" />
        </mxCell>
        <mxCell id="QgBrxl4_QCWRq82KucZh-7" value="Subtitles" style="text;html=1;strokeColor=none;fillColor=none;align=left;verticalAlign=middle;whiteSpace=wrap;rounded=0;spacingLeft=5;" vertex="1" parent="1">
          <mxGeometry x="90" y="130" width="200" height="20" as="geometry" />
        </mxCell>
        <mxCell id="QgBrxl4_QCWRq82KucZh-8" value="ContactInformation" style="text;html=1;strokeColor=none;fillColor=none;align=left;verticalAlign=middle;whiteSpace=wrap;rounded=0;spacingLeft=5;" vertex="1" parent="1">
          <mxGeometry x="90" y="150" width="200" height="20" as="geometry" />
        </mxCell>
        <mxCell id="QgBrxl4_QCWRq82KucZh-9" value="DeadlinePaperSubmission" style="text;html=1;strokeColor=none;fillColor=none;align=left;verticalAlign=middle;whiteSpace=wrap;rounded=0;spacingLeft=5;" vertex="1" parent="1">
          <mxGeometry x="90" y="170" width="200" height="20" as="geometry" />
        </mxCell>
        <mxCell id="QgBrxl4_QCWRq82KucZh-10" value="DeadlinePaperReview" style="text;html=1;strokeColor=none;fillColor=none;align=left;verticalAlign=middle;whiteSpace=wrap;rounded=0;spacingLeft=5;" vertex="1" parent="1">
          <mxGeometry x="90" y="190" width="200" height="20" as="geometry" />
        </mxCell>
        <mxCell id="QgBrxl4_QCWRq82KucZh-11" value="DeadlineAcceptanceNotification" style="text;html=1;strokeColor=none;fillColor=none;align=left;verticalAlign=middle;whiteSpace=wrap;rounded=0;spacingLeft=5;" vertex="1" parent="1">
          <mxGeometry x="90" y="210" width="200" height="20" as="geometry" />
        </mxCell>
        <mxCell id="QgBrxl4_QCWRq82KucZh-12" value="DeadlineAcceptedPaperUpload" style="text;html=1;strokeColor=none;fillColor=none;align=left;verticalAlign=middle;whiteSpace=wrap;rounded=0;spacingLeft=5;" vertex="1" parent="1">
          <mxGeometry x="90" y="230" width="200" height="20" as="geometry" />
        </mxCell>
        <mxCell id="QgBrxl4_QCWRq82KucZh-13" value="PK int" style="text;html=1;strokeColor=none;fillColor=none;align=left;verticalAlign=middle;whiteSpace=wrap;rounded=0;spacingLeft=5;fontStyle=1" vertex="1" parent="1">
          <mxGeometry x="20" y="70" width="70" height="20" as="geometry" />
        </mxCell>
        <mxCell id="QgBrxl4_QCWRq82KucZh-14" value="string" style="text;html=1;strokeColor=none;fillColor=none;align=left;verticalAlign=middle;whiteSpace=wrap;rounded=0;spacingLeft=5;" vertex="1" parent="1">
          <mxGeometry x="20" y="90" width="70" height="20" as="geometry" />
        </mxCell>
        <mxCell id="QgBrxl4_QCWRq82KucZh-15" value="string" style="text;html=1;strokeColor=none;fillColor=none;align=left;verticalAlign=middle;whiteSpace=wrap;rounded=0;spacingLeft=5;" vertex="1" parent="1">
          <mxGeometry x="20" y="110" width="70" height="20" as="geometry" />
        </mxCell>
        <mxCell id="QgBrxl4_QCWRq82KucZh-16" value="string" style="text;html=1;strokeColor=none;fillColor=none;align=left;verticalAlign=middle;whiteSpace=wrap;rounded=0;spacingLeft=5;" vertex="1" parent="1">
          <mxGeometry x="20" y="130" width="70" height="20" as="geometry" />
        </mxCell>
        <mxCell id="QgBrxl4_QCWRq82KucZh-17" value="string" style="text;html=1;strokeColor=none;fillColor=none;align=left;verticalAlign=middle;whiteSpace=wrap;rounded=0;spacingLeft=5;" vertex="1" parent="1">
          <mxGeometry x="20" y="150" width="70" height="20" as="geometry" />
        </mxCell>
        <mxCell id="QgBrxl4_QCWRq82KucZh-18" value="date" style="text;html=1;strokeColor=none;fillColor=none;align=left;verticalAlign=middle;whiteSpace=wrap;rounded=0;spacingLeft=5;" vertex="1" parent="1">
          <mxGeometry x="20" y="170" width="70" height="20" as="geometry" />
        </mxCell>
        <mxCell id="QgBrxl4_QCWRq82KucZh-19" value="date" style="text;html=1;strokeColor=none;fillColor=none;align=left;verticalAlign=middle;whiteSpace=wrap;rounded=0;spacingLeft=5;" vertex="1" parent="1">
          <mxGeometry x="20" y="190" width="70" height="20" as="geometry" />
        </mxCell>
        <mxCell id="QgBrxl4_QCWRq82KucZh-20" value="date" style="text;html=1;strokeColor=none;fillColor=none;align=left;verticalAlign=middle;whiteSpace=wrap;rounded=0;spacingLeft=5;" vertex="1" parent="1">
          <mxGeometry x="20" y="210" width="70" height="20" as="geometry" />
        </mxCell>
        <mxCell id="QgBrxl4_QCWRq82KucZh-21" value="date" style="text;html=1;strokeColor=none;fillColor=none;align=left;verticalAlign=middle;whiteSpace=wrap;rounded=0;spacingLeft=5;" vertex="1" parent="1">
          <mxGeometry x="20" y="230" width="70" height="20" as="geometry" />
        </mxCell>
        <mxCell id="QgBrxl4_QCWRq82KucZh-22" value="" style="endArrow=none;html=1;rounded=0;entryX=0.25;entryY=1;entryDx=0;entryDy=0;exitX=0.25;exitY=1;exitDx=0;exitDy=0;" edge="1" parent="1" source="QgBrxl4_QCWRq82KucZh-1" target="QgBrxl4_QCWRq82KucZh-2">
          <mxGeometry width="50" height="50" relative="1" as="geometry">
            <mxPoint x="400" y="360" as="sourcePoint" />
            <mxPoint x="450" y="310" as="targetPoint" />
          </mxGeometry>
        </mxCell>
        <mxCell id="QgBrxl4_QCWRq82KucZh-23" value="" style="rounded=0;whiteSpace=wrap;html=1;strokeColor=default;" vertex="1" parent="1">
          <mxGeometry x="1000" y="40" width="180" height="80" as="geometry" />
        </mxCell>
        <mxCell id="QgBrxl4_QCWRq82KucZh-24" value="Topic" style="text;html=1;strokeColor=default;fillColor=none;align=center;verticalAlign=middle;whiteSpace=wrap;rounded=0;" vertex="1" parent="1">
          <mxGeometry x="1000" y="40" width="180" height="30" as="geometry" />
        </mxCell>
        <mxCell id="QgBrxl4_QCWRq82KucZh-26" value="TopicID" style="text;html=1;strokeColor=none;fillColor=none;align=left;verticalAlign=middle;whiteSpace=wrap;rounded=0;spacingLeft=5;fontStyle=1" vertex="1" parent="1">
          <mxGeometry x="1080" y="70" width="100" height="20" as="geometry" />
        </mxCell>
        <mxCell id="QgBrxl4_QCWRq82KucZh-28" value="PK, FK int" style="text;html=1;strokeColor=none;fillColor=none;align=left;verticalAlign=middle;whiteSpace=wrap;rounded=0;spacingLeft=5;fontStyle=1" vertex="1" parent="1">
          <mxGeometry x="1000" y="70" width="70" height="20" as="geometry" />
        </mxCell>
        <mxCell id="QgBrxl4_QCWRq82KucZh-29" value="string" style="text;html=1;strokeColor=none;fillColor=none;align=left;verticalAlign=middle;whiteSpace=wrap;rounded=0;spacingLeft=5;fontStyle=0" vertex="1" parent="1">
          <mxGeometry x="1000" y="90" width="70" height="20" as="geometry" />
        </mxCell>
        <mxCell id="QgBrxl4_QCWRq82KucZh-31" value="Name" style="text;html=1;strokeColor=none;fillColor=none;align=left;verticalAlign=middle;whiteSpace=wrap;rounded=0;spacingLeft=5;fontStyle=0" vertex="1" parent="1">
          <mxGeometry x="1080" y="90" width="100" height="20" as="geometry" />
        </mxCell>
        <mxCell id="QgBrxl4_QCWRq82KucZh-32" value="" style="rounded=0;whiteSpace=wrap;html=1;strokeColor=default;" vertex="1" parent="1">
          <mxGeometry x="370" y="90" width="230" height="100" as="geometry" />
        </mxCell>
        <mxCell id="QgBrxl4_QCWRq82KucZh-33" value="TopicToConference" style="text;html=1;strokeColor=default;fillColor=none;align=center;verticalAlign=middle;whiteSpace=wrap;rounded=0;" vertex="1" parent="1">
          <mxGeometry x="370" y="90" width="230" height="30" as="geometry" />
        </mxCell>
        <mxCell id="QgBrxl4_QCWRq82KucZh-34" value="TopicToConferenceID" style="text;html=1;strokeColor=none;fillColor=none;align=left;verticalAlign=middle;whiteSpace=wrap;rounded=0;spacingLeft=5;fontStyle=1" vertex="1" parent="1">
          <mxGeometry x="450" y="120" width="110" height="20" as="geometry" />
        </mxCell>
        <mxCell id="QgBrxl4_QCWRq82KucZh-35" value="PK int" style="text;html=1;strokeColor=none;fillColor=none;align=left;verticalAlign=middle;whiteSpace=wrap;rounded=0;spacingLeft=5;fontStyle=1" vertex="1" parent="1">
          <mxGeometry x="370" y="120" width="70" height="20" as="geometry" />
        </mxCell>
        <mxCell id="QgBrxl4_QCWRq82KucZh-36" value="" style="endArrow=none;html=1;rounded=0;entryX=1;entryY=0;entryDx=0;entryDy=0;" edge="1" parent="1" target="QgBrxl4_QCWRq82KucZh-28">
          <mxGeometry width="50" height="50" relative="1" as="geometry">
            <mxPoint x="1070" y="120" as="sourcePoint" />
            <mxPoint x="820" y="290" as="targetPoint" />
          </mxGeometry>
        </mxCell>
        <mxCell id="QgBrxl4_QCWRq82KucZh-37" value="TopicID" style="text;html=1;strokeColor=none;fillColor=none;align=left;verticalAlign=middle;whiteSpace=wrap;rounded=0;spacingLeft=5;fontStyle=0" vertex="1" parent="1">
          <mxGeometry x="450" y="140" width="110" height="20" as="geometry" />
        </mxCell>
        <mxCell id="QgBrxl4_QCWRq82KucZh-38" value="FK int" style="text;html=1;strokeColor=none;fillColor=none;align=left;verticalAlign=middle;whiteSpace=wrap;rounded=0;spacingLeft=5;fontStyle=1" vertex="1" parent="1">
          <mxGeometry x="370" y="140" width="70" height="20" as="geometry" />
        </mxCell>
        <mxCell id="QgBrxl4_QCWRq82KucZh-39" value="ConferenceID" style="text;html=1;strokeColor=none;fillColor=none;align=left;verticalAlign=middle;whiteSpace=wrap;rounded=0;spacingLeft=5;fontStyle=0" vertex="1" parent="1">
          <mxGeometry x="450" y="160" width="110" height="20" as="geometry" />
        </mxCell>
        <mxCell id="QgBrxl4_QCWRq82KucZh-40" value="FK int" style="text;html=1;strokeColor=none;fillColor=none;align=left;verticalAlign=middle;whiteSpace=wrap;rounded=0;spacingLeft=5;fontStyle=1" vertex="1" parent="1">
          <mxGeometry x="370" y="160" width="70" height="20" as="geometry" />
        </mxCell>
        <mxCell id="QgBrxl4_QCWRq82KucZh-41" value="" style="edgeStyle=entityRelationEdgeStyle;fontSize=12;html=1;endArrow=ERoneToMany;rounded=0;exitX=1;exitY=0;exitDx=0;exitDy=0;entryX=0;entryY=0.25;entryDx=0;entryDy=0;" edge="1" parent="1" source="QgBrxl4_QCWRq82KucZh-9" target="QgBrxl4_QCWRq82KucZh-38">
          <mxGeometry width="100" height="100" relative="1" as="geometry">
            <mxPoint x="370" y="380" as="sourcePoint" />
            <mxPoint x="470" y="280" as="targetPoint" />
          </mxGeometry>
        </mxCell>
        <mxCell id="QgBrxl4_QCWRq82KucZh-42" value="" style="edgeStyle=entityRelationEdgeStyle;fontSize=12;html=1;endArrow=ERoneToMany;rounded=0;exitX=0;exitY=0.5;exitDx=0;exitDy=0;entryX=1;entryY=0.75;entryDx=0;entryDy=0;" edge="1" parent="1" source="QgBrxl4_QCWRq82KucZh-29" target="QgBrxl4_QCWRq82KucZh-32">
          <mxGeometry width="100" height="100" relative="1" as="geometry">
            <mxPoint x="370" y="380" as="sourcePoint" />
            <mxPoint x="470" y="280" as="targetPoint" />
          </mxGeometry>
        </mxCell>
        <mxCell id="QgBrxl4_QCWRq82KucZh-43" value="" style="endArrow=none;html=1;rounded=0;entryX=0.317;entryY=1;entryDx=0;entryDy=0;entryPerimeter=0;" edge="1" parent="1" target="QgBrxl4_QCWRq82KucZh-33">
          <mxGeometry width="50" height="50" relative="1" as="geometry">
            <mxPoint x="443" y="190" as="sourcePoint" />
            <mxPoint x="450" y="310" as="targetPoint" />
          </mxGeometry>
        </mxCell>
        <mxCell id="QgBrxl4_QCWRq82KucZh-44" value="" style="rounded=0;whiteSpace=wrap;html=1;strokeColor=default;" vertex="1" parent="1">
          <mxGeometry x="15" y="840" width="260" height="220" as="geometry" />
        </mxCell>
        <mxCell id="QgBrxl4_QCWRq82KucZh-45" value="User" style="text;html=1;strokeColor=default;fillColor=none;align=center;verticalAlign=middle;whiteSpace=wrap;rounded=0;" vertex="1" parent="1">
          <mxGeometry x="15" y="840" width="260" height="30" as="geometry" />
        </mxCell>
        <mxCell id="QgBrxl4_QCWRq82KucZh-48" value="UserID" style="text;html=1;strokeColor=none;fillColor=none;align=left;verticalAlign=middle;whiteSpace=wrap;rounded=0;spacingLeft=5;fontStyle=1" vertex="1" parent="1">
          <mxGeometry x="85" y="870" width="190" height="20" as="geometry" />
        </mxCell>
        <mxCell id="QgBrxl4_QCWRq82KucZh-49" value="PK int" style="text;html=1;strokeColor=none;fillColor=none;align=left;verticalAlign=middle;whiteSpace=wrap;rounded=0;spacingLeft=5;fontStyle=1" vertex="1" parent="1">
          <mxGeometry x="15" y="870" width="70" height="20" as="geometry" />
        </mxCell>
        <mxCell id="QgBrxl4_QCWRq82KucZh-50" value="FName" style="text;html=1;strokeColor=none;fillColor=none;align=left;verticalAlign=middle;whiteSpace=wrap;rounded=0;spacingLeft=5;fontStyle=0" vertex="1" parent="1">
          <mxGeometry x="85" y="930" width="190" height="20" as="geometry" />
        </mxCell>
        <mxCell id="QgBrxl4_QCWRq82KucZh-51" value="string" style="text;html=1;strokeColor=none;fillColor=none;align=left;verticalAlign=middle;whiteSpace=wrap;rounded=0;spacingLeft=5;fontStyle=0" vertex="1" parent="1">
          <mxGeometry x="15" y="930" width="70" height="20" as="geometry" />
        </mxCell>
        <mxCell id="QgBrxl4_QCWRq82KucZh-52" value="LName" style="text;html=1;strokeColor=none;fillColor=none;align=left;verticalAlign=middle;whiteSpace=wrap;rounded=0;spacingLeft=5;fontStyle=0" vertex="1" parent="1">
          <mxGeometry x="85" y="950" width="190" height="20" as="geometry" />
        </mxCell>
        <mxCell id="QgBrxl4_QCWRq82KucZh-53" value="string" style="text;html=1;strokeColor=none;fillColor=none;align=left;verticalAlign=middle;whiteSpace=wrap;rounded=0;spacingLeft=5;fontStyle=0" vertex="1" parent="1">
          <mxGeometry x="15" y="950" width="70" height="20" as="geometry" />
        </mxCell>
        <mxCell id="QgBrxl4_QCWRq82KucZh-54" value="Title" style="text;html=1;strokeColor=none;fillColor=none;align=left;verticalAlign=middle;whiteSpace=wrap;rounded=0;spacingLeft=5;fontStyle=0" vertex="1" parent="1">
          <mxGeometry x="85" y="970" width="190" height="20" as="geometry" />
        </mxCell>
        <mxCell id="QgBrxl4_QCWRq82KucZh-55" value="string" style="text;html=1;strokeColor=none;fillColor=none;align=left;verticalAlign=middle;whiteSpace=wrap;rounded=0;spacingLeft=5;fontStyle=0" vertex="1" parent="1">
          <mxGeometry x="15" y="970" width="70" height="20" as="geometry" />
        </mxCell>
        <mxCell id="QgBrxl4_QCWRq82KucZh-56" value="DateOfBirth" style="text;html=1;strokeColor=none;fillColor=none;align=left;verticalAlign=middle;whiteSpace=wrap;rounded=0;spacingLeft=5;fontStyle=0" vertex="1" parent="1">
          <mxGeometry x="85" y="990" width="190" height="20" as="geometry" />
        </mxCell>
        <mxCell id="QgBrxl4_QCWRq82KucZh-57" value="date" style="text;html=1;strokeColor=none;fillColor=none;align=left;verticalAlign=middle;whiteSpace=wrap;rounded=0;spacingLeft=5;fontStyle=0" vertex="1" parent="1">
          <mxGeometry x="15" y="990" width="70" height="20" as="geometry" />
        </mxCell>
        <mxCell id="QgBrxl4_QCWRq82KucZh-59" value="Nationality" style="text;html=1;strokeColor=none;fillColor=none;align=left;verticalAlign=middle;whiteSpace=wrap;rounded=0;spacingLeft=5;fontStyle=0" vertex="1" parent="1">
          <mxGeometry x="85" y="1010" width="190" height="20" as="geometry" />
        </mxCell>
        <mxCell id="QgBrxl4_QCWRq82KucZh-60" value="string" style="text;html=1;strokeColor=none;fillColor=none;align=left;verticalAlign=middle;whiteSpace=wrap;rounded=0;spacingLeft=5;fontStyle=0" vertex="1" parent="1">
          <mxGeometry x="15" y="1010" width="70" height="20" as="geometry" />
        </mxCell>
        <mxCell id="QgBrxl4_QCWRq82KucZh-61" value="Adress" style="text;html=1;strokeColor=none;fillColor=none;align=left;verticalAlign=middle;whiteSpace=wrap;rounded=0;spacingLeft=5;fontStyle=0" vertex="1" parent="1">
          <mxGeometry x="85" y="1030" width="190" height="20" as="geometry" />
        </mxCell>
        <mxCell id="QgBrxl4_QCWRq82KucZh-62" value="string" style="text;html=1;strokeColor=none;fillColor=none;align=left;verticalAlign=middle;whiteSpace=wrap;rounded=0;spacingLeft=5;fontStyle=0" vertex="1" parent="1">
          <mxGeometry x="15" y="1030" width="70" height="20" as="geometry" />
        </mxCell>
        <mxCell id="QgBrxl4_QCWRq82KucZh-76" value="Password" style="text;html=1;strokeColor=none;fillColor=none;align=left;verticalAlign=middle;whiteSpace=wrap;rounded=0;spacingLeft=5;fontStyle=0" vertex="1" parent="1">
          <mxGeometry x="85" y="910" width="190" height="20" as="geometry" />
        </mxCell>
        <mxCell id="QgBrxl4_QCWRq82KucZh-77" value="string" style="text;html=1;strokeColor=none;fillColor=none;align=left;verticalAlign=middle;whiteSpace=wrap;rounded=0;spacingLeft=5;fontStyle=0" vertex="1" parent="1">
          <mxGeometry x="15" y="910" width="70" height="20" as="geometry" />
        </mxCell>
        <mxCell id="QgBrxl4_QCWRq82KucZh-78" value="Email" style="text;html=1;strokeColor=none;fillColor=none;align=left;verticalAlign=middle;whiteSpace=wrap;rounded=0;spacingLeft=5;fontStyle=0" vertex="1" parent="1">
          <mxGeometry x="85" y="890" width="190" height="20" as="geometry" />
        </mxCell>
        <mxCell id="QgBrxl4_QCWRq82KucZh-79" value="string" style="text;html=1;strokeColor=none;fillColor=none;align=left;verticalAlign=middle;whiteSpace=wrap;rounded=0;spacingLeft=5;fontStyle=0" vertex="1" parent="1">
          <mxGeometry x="15" y="890" width="70" height="20" as="geometry" />
        </mxCell>
        <mxCell id="QgBrxl4_QCWRq82KucZh-80" value="" style="rounded=0;whiteSpace=wrap;html=1;strokeColor=default;" vertex="1" parent="1">
          <mxGeometry x="25" y="360" width="250" height="410" as="geometry" />
        </mxCell>
        <mxCell id="QgBrxl4_QCWRq82KucZh-81" value="Participation" style="text;html=1;strokeColor=default;fillColor=none;align=center;verticalAlign=middle;whiteSpace=wrap;rounded=0;" vertex="1" parent="1">
          <mxGeometry x="25" y="360" width="250" height="30" as="geometry" />
        </mxCell>
        <mxCell id="QgBrxl4_QCWRq82KucZh-84" value="" style="edgeStyle=entityRelationEdgeStyle;fontSize=12;html=1;endArrow=ERoneToMany;rounded=0;strokeColor=default;entryX=1.012;entryY=0.161;entryDx=0;entryDy=0;entryPerimeter=0;" edge="1" parent="1" source="QgBrxl4_QCWRq82KucZh-11" target="QgBrxl4_QCWRq82KucZh-80">
          <mxGeometry width="100" height="100" relative="1" as="geometry">
            <mxPoint x="350" y="250" as="sourcePoint" />
            <mxPoint x="205" y="170" as="targetPoint" />
          </mxGeometry>
        </mxCell>
        <mxCell id="QgBrxl4_QCWRq82KucZh-86" value="ParticipationID" style="text;html=1;strokeColor=none;fillColor=none;align=left;verticalAlign=middle;whiteSpace=wrap;rounded=0;spacingLeft=5;fontStyle=1" vertex="1" parent="1">
          <mxGeometry x="95" y="390" width="175" height="20" as="geometry" />
        </mxCell>
        <mxCell id="QgBrxl4_QCWRq82KucZh-87" value="PK int" style="text;html=1;strokeColor=none;fillColor=none;align=left;verticalAlign=middle;whiteSpace=wrap;rounded=0;spacingLeft=5;fontStyle=1" vertex="1" parent="1">
          <mxGeometry x="25" y="390" width="70" height="20" as="geometry" />
        </mxCell>
        <mxCell id="QgBrxl4_QCWRq82KucZh-88" value="ConferenceID" style="text;html=1;strokeColor=none;fillColor=none;align=left;verticalAlign=middle;whiteSpace=wrap;rounded=0;spacingLeft=5;fontStyle=0" vertex="1" parent="1">
          <mxGeometry x="95" y="410" width="190" height="20" as="geometry" />
        </mxCell>
        <mxCell id="QgBrxl4_QCWRq82KucZh-89" value="FK int" style="text;html=1;strokeColor=none;fillColor=none;align=left;verticalAlign=middle;whiteSpace=wrap;rounded=0;spacingLeft=5;fontStyle=1" vertex="1" parent="1">
          <mxGeometry x="25" y="410" width="70" height="20" as="geometry" />
        </mxCell>
        <mxCell id="QgBrxl4_QCWRq82KucZh-92" value="UserID" style="text;html=1;strokeColor=none;fillColor=none;align=left;verticalAlign=middle;whiteSpace=wrap;rounded=0;spacingLeft=5;fontStyle=0" vertex="1" parent="1">
          <mxGeometry x="95" y="430" width="190" height="20" as="geometry" />
        </mxCell>
        <mxCell id="QgBrxl4_QCWRq82KucZh-93" value="FK int" style="text;html=1;strokeColor=none;fillColor=none;align=left;verticalAlign=middle;whiteSpace=wrap;rounded=0;spacingLeft=5;fontStyle=1" vertex="1" parent="1">
          <mxGeometry x="25" y="430" width="70" height="20" as="geometry" />
        </mxCell>
        <mxCell id="QgBrxl4_QCWRq82KucZh-95" value="" style="edgeStyle=entityRelationEdgeStyle;fontSize=12;html=1;endArrow=ERoneToMany;rounded=0;strokeColor=default;entryX=1;entryY=0.963;entryDx=0;entryDy=0;entryPerimeter=0;" edge="1" parent="1" target="QgBrxl4_QCWRq82KucZh-80">
          <mxGeometry width="100" height="100" relative="1" as="geometry">
            <mxPoint x="280" y="900" as="sourcePoint" />
            <mxPoint x="500" y="730" as="targetPoint" />
          </mxGeometry>
        </mxCell>
        <mxCell id="QgBrxl4_QCWRq82KucZh-96" value="Type" style="text;html=1;strokeColor=none;fillColor=none;align=left;verticalAlign=middle;whiteSpace=wrap;rounded=0;spacingLeft=5;fontStyle=0" vertex="1" parent="1">
          <mxGeometry x="95" y="450" width="190" height="20" as="geometry" />
        </mxCell>
        <mxCell id="QgBrxl4_QCWRq82KucZh-97" value="int" style="text;html=1;strokeColor=none;fillColor=none;align=left;verticalAlign=middle;whiteSpace=wrap;rounded=0;spacingLeft=5;fontStyle=0" vertex="1" parent="1">
          <mxGeometry x="25" y="450" width="70" height="20" as="geometry" />
        </mxCell>
        <mxCell id="QgBrxl4_QCWRq82KucZh-98" value="" style="rounded=0;whiteSpace=wrap;html=1;strokeColor=default;" vertex="1" parent="1">
          <mxGeometry x="40" y="490" width="220" height="70" as="geometry" />
        </mxCell>
        <mxCell id="QgBrxl4_QCWRq82KucZh-99" value="Chair" style="text;html=1;strokeColor=default;fillColor=none;align=center;verticalAlign=middle;whiteSpace=wrap;rounded=0;" vertex="1" parent="1">
          <mxGeometry x="40" y="490" width="220" height="30" as="geometry" />
        </mxCell>
        <mxCell id="QgBrxl4_QCWRq82KucZh-102" value="" style="rounded=0;whiteSpace=wrap;html=1;strokeColor=default;" vertex="1" parent="1">
          <mxGeometry x="40" y="580" width="220" height="70" as="geometry" />
        </mxCell>
        <mxCell id="QgBrxl4_QCWRq82KucZh-103" value="Author" style="text;html=1;strokeColor=default;fillColor=none;align=center;verticalAlign=middle;whiteSpace=wrap;rounded=0;" vertex="1" parent="1">
          <mxGeometry x="40" y="580" width="220" height="30" as="geometry" />
        </mxCell>
        <mxCell id="QgBrxl4_QCWRq82KucZh-104" value="" style="rounded=0;whiteSpace=wrap;html=1;strokeColor=default;" vertex="1" parent="1">
          <mxGeometry x="40" y="680" width="220" height="70" as="geometry" />
        </mxCell>
        <mxCell id="QgBrxl4_QCWRq82KucZh-105" value="Reviewer" style="text;html=1;strokeColor=default;fillColor=none;align=center;verticalAlign=middle;whiteSpace=wrap;rounded=0;" vertex="1" parent="1">
          <mxGeometry x="40" y="680" width="220" height="30" as="geometry" />
        </mxCell>
        <mxCell id="QgBrxl4_QCWRq82KucZh-106" value="" style="rounded=0;whiteSpace=wrap;html=1;strokeColor=default;" vertex="1" parent="1">
          <mxGeometry x="600" y="1270" width="230" height="100" as="geometry" />
        </mxCell>
        <mxCell id="QgBrxl4_QCWRq82KucZh-107" value="ReviewerTopic" style="text;html=1;strokeColor=default;fillColor=none;align=center;verticalAlign=middle;whiteSpace=wrap;rounded=0;" vertex="1" parent="1">
          <mxGeometry x="600" y="1270" width="230" height="30" as="geometry" />
        </mxCell>
        <mxCell id="QgBrxl4_QCWRq82KucZh-108" value="ReviewerTopicID" style="text;html=1;strokeColor=none;fillColor=none;align=left;verticalAlign=middle;whiteSpace=wrap;rounded=0;spacingLeft=5;fontStyle=1" vertex="1" parent="1">
          <mxGeometry x="670" y="1300" width="150" height="20" as="geometry" />
        </mxCell>
        <mxCell id="QgBrxl4_QCWRq82KucZh-109" value="PK int" style="text;html=1;strokeColor=none;fillColor=none;align=left;verticalAlign=middle;whiteSpace=wrap;rounded=0;spacingLeft=5;fontStyle=1" vertex="1" parent="1">
          <mxGeometry x="600" y="1300" width="70" height="20" as="geometry" />
        </mxCell>
        <mxCell id="QgBrxl4_QCWRq82KucZh-110" value="ReviewerParticipationID" style="text;html=1;strokeColor=none;fillColor=none;align=left;verticalAlign=middle;whiteSpace=wrap;rounded=0;spacingLeft=5;fontStyle=0" vertex="1" parent="1">
          <mxGeometry x="670" y="1320" width="150" height="20" as="geometry" />
        </mxCell>
        <mxCell id="QgBrxl4_QCWRq82KucZh-111" value="FK int" style="text;html=1;strokeColor=none;fillColor=none;align=left;verticalAlign=middle;whiteSpace=wrap;rounded=0;spacingLeft=5;fontStyle=1" vertex="1" parent="1">
          <mxGeometry x="600" y="1320" width="70" height="20" as="geometry" />
        </mxCell>
        <mxCell id="QgBrxl4_QCWRq82KucZh-112" value="TopicID" style="text;html=1;strokeColor=none;fillColor=none;align=left;verticalAlign=middle;whiteSpace=wrap;rounded=0;spacingLeft=5;fontStyle=0" vertex="1" parent="1">
          <mxGeometry x="670" y="1340" width="150" height="20" as="geometry" />
        </mxCell>
        <mxCell id="QgBrxl4_QCWRq82KucZh-113" value="FK int" style="text;html=1;strokeColor=none;fillColor=none;align=left;verticalAlign=middle;whiteSpace=wrap;rounded=0;spacingLeft=5;fontStyle=1" vertex="1" parent="1">
          <mxGeometry x="600" y="1340" width="70" height="20" as="geometry" />
        </mxCell>
        <mxCell id="QgBrxl4_QCWRq82KucZh-114" value="" style="edgeStyle=entityRelationEdgeStyle;fontSize=12;html=1;endArrow=ERoneToMany;rounded=0;strokeColor=default;entryX=1;entryY=0.25;entryDx=0;entryDy=0;" edge="1" parent="1" target="QgBrxl4_QCWRq82KucZh-31">
          <mxGeometry width="100" height="100" relative="1" as="geometry">
            <mxPoint x="1420" y="1180" as="sourcePoint" />
            <mxPoint x="450" y="420" as="targetPoint" />
          </mxGeometry>
        </mxCell>
        <mxCell id="QgBrxl4_QCWRq82KucZh-115" value="" style="edgeStyle=entityRelationEdgeStyle;fontSize=12;html=1;endArrow=ERoneToMany;rounded=0;strokeColor=default;exitX=1.014;exitY=0.671;exitDx=0;exitDy=0;entryX=0;entryY=0.5;entryDx=0;entryDy=0;exitPerimeter=0;" edge="1" parent="1" source="QgBrxl4_QCWRq82KucZh-104" target="QgBrxl4_QCWRq82KucZh-107">
          <mxGeometry width="100" height="100" relative="1" as="geometry">
            <mxPoint x="430" y="740" as="sourcePoint" />
            <mxPoint x="530" y="640" as="targetPoint" />
          </mxGeometry>
        </mxCell>
        <mxCell id="QgBrxl4_QCWRq82KucZh-116" value="" style="rounded=0;whiteSpace=wrap;html=1;strokeColor=default;" vertex="1" parent="1">
          <mxGeometry x="640" y="510" width="240" height="160" as="geometry" />
        </mxCell>
        <mxCell id="QgBrxl4_QCWRq82KucZh-117" value="Paper" style="text;html=1;strokeColor=default;fillColor=none;align=center;verticalAlign=middle;whiteSpace=wrap;rounded=0;" vertex="1" parent="1">
          <mxGeometry x="640" y="510" width="240" height="30" as="geometry" />
        </mxCell>
        <mxCell id="QgBrxl4_QCWRq82KucZh-118" value="PaperID" style="text;html=1;strokeColor=none;fillColor=none;align=left;verticalAlign=middle;whiteSpace=wrap;rounded=0;spacingLeft=5;fontStyle=1" vertex="1" parent="1">
          <mxGeometry x="710" y="540" width="170" height="20" as="geometry" />
        </mxCell>
        <mxCell id="QgBrxl4_QCWRq82KucZh-119" value="PK int" style="text;html=1;strokeColor=none;fillColor=none;align=left;verticalAlign=middle;whiteSpace=wrap;rounded=0;spacingLeft=5;fontStyle=1" vertex="1" parent="1">
          <mxGeometry x="640" y="540" width="70" height="20" as="geometry" />
        </mxCell>
        <mxCell id="QgBrxl4_QCWRq82KucZh-121" value="" style="rounded=0;whiteSpace=wrap;html=1;strokeColor=default;" vertex="1" parent="1">
          <mxGeometry x="925" y="430" width="240" height="100" as="geometry" />
        </mxCell>
        <mxCell id="QgBrxl4_QCWRq82KucZh-122" value="PaperVersionTopic" style="text;html=1;strokeColor=default;fillColor=none;align=center;verticalAlign=middle;whiteSpace=wrap;rounded=0;" vertex="1" parent="1">
          <mxGeometry x="925" y="430" width="240" height="30" as="geometry" />
        </mxCell>
        <mxCell id="QgBrxl4_QCWRq82KucZh-123" value="PaperVersionTopicID" style="text;html=1;strokeColor=none;fillColor=none;align=left;verticalAlign=middle;whiteSpace=wrap;rounded=0;spacingLeft=5;fontStyle=1" vertex="1" parent="1">
          <mxGeometry x="995" y="460" width="150" height="20" as="geometry" />
        </mxCell>
        <mxCell id="QgBrxl4_QCWRq82KucZh-124" value="PK int" style="text;html=1;strokeColor=none;fillColor=none;align=left;verticalAlign=middle;whiteSpace=wrap;rounded=0;spacingLeft=5;fontStyle=1" vertex="1" parent="1">
          <mxGeometry x="925" y="460" width="70" height="20" as="geometry" />
        </mxCell>
        <mxCell id="QgBrxl4_QCWRq82KucZh-125" value="PaperVersionID" style="text;html=1;strokeColor=none;fillColor=none;align=left;verticalAlign=middle;whiteSpace=wrap;rounded=0;spacingLeft=5;fontStyle=0" vertex="1" parent="1">
          <mxGeometry x="995" y="480" width="150" height="20" as="geometry" />
        </mxCell>
        <mxCell id="QgBrxl4_QCWRq82KucZh-126" value="FK int" style="text;html=1;strokeColor=none;fillColor=none;align=left;verticalAlign=middle;whiteSpace=wrap;rounded=0;spacingLeft=5;fontStyle=1" vertex="1" parent="1">
          <mxGeometry x="925" y="480" width="70" height="20" as="geometry" />
        </mxCell>
        <mxCell id="QgBrxl4_QCWRq82KucZh-127" value="TopicID" style="text;html=1;strokeColor=none;fillColor=none;align=left;verticalAlign=middle;whiteSpace=wrap;rounded=0;spacingLeft=5;fontStyle=0" vertex="1" parent="1">
          <mxGeometry x="995" y="500" width="150" height="20" as="geometry" />
        </mxCell>
        <mxCell id="QgBrxl4_QCWRq82KucZh-128" value="FK int" style="text;html=1;strokeColor=none;fillColor=none;align=left;verticalAlign=middle;whiteSpace=wrap;rounded=0;spacingLeft=5;fontStyle=1" vertex="1" parent="1">
          <mxGeometry x="925" y="500" width="70" height="20" as="geometry" />
        </mxCell>
        <mxCell id="QgBrxl4_QCWRq82KucZh-129" value="" style="edgeStyle=entityRelationEdgeStyle;fontSize=12;html=1;endArrow=ERoneToMany;rounded=0;strokeColor=default;exitX=0;exitY=0.75;exitDx=0;exitDy=0;" edge="1" parent="1" source="QgBrxl4_QCWRq82KucZh-189">
          <mxGeometry width="100" height="100" relative="1" as="geometry">
            <mxPoint x="640" y="675" as="sourcePoint" />
            <mxPoint x="920" y="445" as="targetPoint" />
          </mxGeometry>
        </mxCell>
        <mxCell id="QgBrxl4_QCWRq82KucZh-130" value="" style="edgeStyle=entityRelationEdgeStyle;fontSize=12;html=1;endArrow=ERmany;rounded=0;strokeColor=default;entryX=1;entryY=1;entryDx=0;entryDy=0;exitX=1;exitY=0.5;exitDx=0;exitDy=0;" edge="1" parent="1" source="QgBrxl4_QCWRq82KucZh-141" target="QgBrxl4_QCWRq82KucZh-31">
          <mxGeometry width="100" height="100" relative="1" as="geometry">
            <mxPoint x="940" y="270" as="sourcePoint" />
            <mxPoint x="860" y="170" as="targetPoint" />
          </mxGeometry>
        </mxCell>
        <mxCell id="QgBrxl4_QCWRq82KucZh-131" value="" style="rounded=0;whiteSpace=wrap;html=1;strokeColor=default;" vertex="1" parent="1">
          <mxGeometry x="430" y="260" width="220" height="100" as="geometry" />
        </mxCell>
        <mxCell id="QgBrxl4_QCWRq82KucZh-132" value="Session" style="text;html=1;strokeColor=default;fillColor=none;align=center;verticalAlign=middle;whiteSpace=wrap;rounded=0;" vertex="1" parent="1">
          <mxGeometry x="430" y="260" width="220" height="30" as="geometry" />
        </mxCell>
        <mxCell id="QgBrxl4_QCWRq82KucZh-133" value="SessionID" style="text;html=1;strokeColor=none;fillColor=none;align=left;verticalAlign=middle;whiteSpace=wrap;rounded=0;spacingLeft=5;fontStyle=1" vertex="1" parent="1">
          <mxGeometry x="500" y="290" width="150" height="20" as="geometry" />
        </mxCell>
        <mxCell id="QgBrxl4_QCWRq82KucZh-134" value="PK int" style="text;html=1;strokeColor=none;fillColor=none;align=left;verticalAlign=middle;whiteSpace=wrap;rounded=0;spacingLeft=5;fontStyle=1" vertex="1" parent="1">
          <mxGeometry x="430" y="290" width="70" height="20" as="geometry" />
        </mxCell>
        <mxCell id="QgBrxl4_QCWRq82KucZh-135" value="ConferenceID" style="text;html=1;strokeColor=none;fillColor=none;align=left;verticalAlign=middle;whiteSpace=wrap;rounded=0;spacingLeft=5;fontStyle=0" vertex="1" parent="1">
          <mxGeometry x="500" y="310" width="150" height="20" as="geometry" />
        </mxCell>
        <mxCell id="QgBrxl4_QCWRq82KucZh-136" value="FK int" style="text;html=1;strokeColor=none;fillColor=none;align=left;verticalAlign=middle;whiteSpace=wrap;rounded=0;spacingLeft=5;fontStyle=1" vertex="1" parent="1">
          <mxGeometry x="430" y="310" width="70" height="20" as="geometry" />
        </mxCell>
        <mxCell id="QgBrxl4_QCWRq82KucZh-137" value="Name" style="text;html=1;strokeColor=none;fillColor=none;align=left;verticalAlign=middle;whiteSpace=wrap;rounded=0;spacingLeft=5;fontStyle=0" vertex="1" parent="1">
          <mxGeometry x="500" y="330" width="150" height="20" as="geometry" />
        </mxCell>
        <mxCell id="QgBrxl4_QCWRq82KucZh-138" value="string" style="text;html=1;strokeColor=none;fillColor=none;align=left;verticalAlign=middle;whiteSpace=wrap;rounded=0;spacingLeft=5;fontStyle=1" vertex="1" parent="1">
          <mxGeometry x="430" y="330" width="70" height="20" as="geometry" />
        </mxCell>
        <mxCell id="QgBrxl4_QCWRq82KucZh-139" value="" style="edgeStyle=entityRelationEdgeStyle;fontSize=12;html=1;endArrow=ERzeroToMany;startArrow=ERmandOne;rounded=0;strokeColor=default;exitX=1;exitY=0.25;exitDx=0;exitDy=0;entryX=0;entryY=0.5;entryDx=0;entryDy=0;" edge="1" parent="1" source="QgBrxl4_QCWRq82KucZh-10" target="QgBrxl4_QCWRq82KucZh-132">
          <mxGeometry width="100" height="100" relative="1" as="geometry">
            <mxPoint x="400" y="470" as="sourcePoint" />
            <mxPoint x="500" y="370" as="targetPoint" />
          </mxGeometry>
        </mxCell>
        <mxCell id="QgBrxl4_QCWRq82KucZh-141" value="" style="rounded=0;whiteSpace=wrap;html=1;strokeColor=default;" vertex="1" parent="1">
          <mxGeometry x="945" y="230" width="240" height="100" as="geometry" />
        </mxCell>
        <mxCell id="QgBrxl4_QCWRq82KucZh-142" value="SessionTopic" style="text;html=1;strokeColor=default;fillColor=none;align=center;verticalAlign=middle;whiteSpace=wrap;rounded=0;" vertex="1" parent="1">
          <mxGeometry x="945" y="230" width="240" height="30" as="geometry" />
        </mxCell>
        <mxCell id="QgBrxl4_QCWRq82KucZh-143" value="SessionTopicID" style="text;html=1;strokeColor=none;fillColor=none;align=left;verticalAlign=middle;whiteSpace=wrap;rounded=0;spacingLeft=5;fontStyle=1" vertex="1" parent="1">
          <mxGeometry x="1015" y="260" width="150" height="20" as="geometry" />
        </mxCell>
        <mxCell id="QgBrxl4_QCWRq82KucZh-144" value="PK int" style="text;html=1;strokeColor=none;fillColor=none;align=left;verticalAlign=middle;whiteSpace=wrap;rounded=0;spacingLeft=5;fontStyle=1" vertex="1" parent="1">
          <mxGeometry x="945" y="260" width="70" height="20" as="geometry" />
        </mxCell>
        <mxCell id="QgBrxl4_QCWRq82KucZh-145" value="SessionID" style="text;html=1;strokeColor=none;fillColor=none;align=left;verticalAlign=middle;whiteSpace=wrap;rounded=0;spacingLeft=5;fontStyle=0" vertex="1" parent="1">
          <mxGeometry x="1015" y="280" width="150" height="20" as="geometry" />
        </mxCell>
        <mxCell id="QgBrxl4_QCWRq82KucZh-146" value="FK int" style="text;html=1;strokeColor=none;fillColor=none;align=left;verticalAlign=middle;whiteSpace=wrap;rounded=0;spacingLeft=5;fontStyle=1" vertex="1" parent="1">
          <mxGeometry x="945" y="280" width="70" height="20" as="geometry" />
        </mxCell>
        <mxCell id="QgBrxl4_QCWRq82KucZh-147" value="TopicID" style="text;html=1;strokeColor=none;fillColor=none;align=left;verticalAlign=middle;whiteSpace=wrap;rounded=0;spacingLeft=5;fontStyle=0" vertex="1" parent="1">
          <mxGeometry x="1015" y="300" width="150" height="20" as="geometry" />
        </mxCell>
        <mxCell id="QgBrxl4_QCWRq82KucZh-148" value="FK int" style="text;html=1;strokeColor=none;fillColor=none;align=left;verticalAlign=middle;whiteSpace=wrap;rounded=0;spacingLeft=5;fontStyle=1" vertex="1" parent="1">
          <mxGeometry x="945" y="300" width="70" height="20" as="geometry" />
        </mxCell>
        <mxCell id="QgBrxl4_QCWRq82KucZh-149" value="" style="edgeStyle=entityRelationEdgeStyle;fontSize=12;html=1;endArrow=ERzeroToMany;startArrow=ERmandOne;rounded=0;strokeColor=default;exitX=1;exitY=0;exitDx=0;exitDy=0;entryX=0;entryY=0;entryDx=0;entryDy=0;" edge="1" parent="1" source="QgBrxl4_QCWRq82KucZh-137" target="QgBrxl4_QCWRq82KucZh-144">
          <mxGeometry width="100" height="100" relative="1" as="geometry">
            <mxPoint x="670" y="430" as="sourcePoint" />
            <mxPoint x="770" y="330" as="targetPoint" />
          </mxGeometry>
        </mxCell>
        <mxCell id="QgBrxl4_QCWRq82KucZh-150" value="" style="edgeStyle=entityRelationEdgeStyle;fontSize=12;html=1;endArrow=ERmandOne;startArrow=ERmandOne;rounded=0;strokeColor=default;exitX=1;exitY=1;exitDx=0;exitDy=0;entryX=-0.012;entryY=0.3;entryDx=0;entryDy=0;entryPerimeter=0;" edge="1" parent="1" source="QgBrxl4_QCWRq82KucZh-12" target="QgBrxl4_QCWRq82KucZh-116">
          <mxGeometry width="100" height="100" relative="1" as="geometry">
            <mxPoint x="350" y="460" as="sourcePoint" />
            <mxPoint x="450" y="360" as="targetPoint" />
          </mxGeometry>
        </mxCell>
        <mxCell id="QgBrxl4_QCWRq82KucZh-151" value="" style="edgeStyle=entityRelationEdgeStyle;fontSize=12;html=1;endArrow=ERzeroToOne;endFill=1;rounded=0;strokeColor=default;exitX=0.907;exitY=0.057;exitDx=0;exitDy=0;entryX=1;entryY=1;entryDx=0;entryDy=0;exitPerimeter=0;" edge="1" parent="1" source="QgBrxl4_QCWRq82KucZh-117" target="QgBrxl4_QCWRq82KucZh-137">
          <mxGeometry width="100" height="100" relative="1" as="geometry">
            <mxPoint x="350" y="170" as="sourcePoint" />
            <mxPoint x="430" y="330" as="targetPoint" />
          </mxGeometry>
        </mxCell>
        <mxCell id="QgBrxl4_QCWRq82KucZh-160" value="ConferenceID" style="text;html=1;strokeColor=none;fillColor=none;align=left;verticalAlign=middle;whiteSpace=wrap;rounded=0;spacingLeft=5;fontStyle=0" vertex="1" parent="1">
          <mxGeometry x="710" y="560" width="170" height="20" as="geometry" />
        </mxCell>
        <mxCell id="QgBrxl4_QCWRq82KucZh-161" value="FK int" style="text;html=1;strokeColor=none;fillColor=none;align=left;verticalAlign=middle;whiteSpace=wrap;rounded=0;spacingLeft=5;fontStyle=1" vertex="1" parent="1">
          <mxGeometry x="640" y="560" width="70" height="20" as="geometry" />
        </mxCell>
        <mxCell id="QgBrxl4_QCWRq82KucZh-169" value="" style="rounded=0;whiteSpace=wrap;html=1;strokeColor=default;" vertex="1" parent="1">
          <mxGeometry x="360" y="580" width="200" height="100" as="geometry" />
        </mxCell>
        <mxCell id="QgBrxl4_QCWRq82KucZh-170" value="PaperToAuthor" style="text;html=1;strokeColor=default;fillColor=none;align=center;verticalAlign=middle;whiteSpace=wrap;rounded=0;" vertex="1" parent="1">
          <mxGeometry x="360" y="580" width="200" height="30" as="geometry" />
        </mxCell>
        <mxCell id="QgBrxl4_QCWRq82KucZh-171" value="PaperToAuthorID" style="text;html=1;strokeColor=none;fillColor=none;align=left;verticalAlign=middle;whiteSpace=wrap;rounded=0;spacingLeft=5;fontStyle=1" vertex="1" parent="1">
          <mxGeometry x="430" y="610" width="130" height="20" as="geometry" />
        </mxCell>
        <mxCell id="QgBrxl4_QCWRq82KucZh-172" value="PK int" style="text;html=1;strokeColor=none;fillColor=none;align=left;verticalAlign=middle;whiteSpace=wrap;rounded=0;spacingLeft=5;fontStyle=1" vertex="1" parent="1">
          <mxGeometry x="360" y="610" width="70" height="20" as="geometry" />
        </mxCell>
        <mxCell id="QgBrxl4_QCWRq82KucZh-173" value="PaperID" style="text;html=1;strokeColor=none;fillColor=none;align=left;verticalAlign=middle;whiteSpace=wrap;rounded=0;spacingLeft=5;fontStyle=0" vertex="1" parent="1">
          <mxGeometry x="430" y="630" width="130" height="20" as="geometry" />
        </mxCell>
        <mxCell id="QgBrxl4_QCWRq82KucZh-174" value="FK int" style="text;html=1;strokeColor=none;fillColor=none;align=left;verticalAlign=middle;whiteSpace=wrap;rounded=0;spacingLeft=5;fontStyle=1" vertex="1" parent="1">
          <mxGeometry x="360" y="630" width="70" height="20" as="geometry" />
        </mxCell>
        <mxCell id="QgBrxl4_QCWRq82KucZh-177" value="AuthorParticipationID" style="text;html=1;strokeColor=none;fillColor=none;align=left;verticalAlign=middle;whiteSpace=wrap;rounded=0;spacingLeft=5;fontStyle=0" vertex="1" parent="1">
          <mxGeometry x="430" y="650" width="130" height="20" as="geometry" />
        </mxCell>
        <mxCell id="QgBrxl4_QCWRq82KucZh-178" value="FK int" style="text;html=1;strokeColor=none;fillColor=none;align=left;verticalAlign=middle;whiteSpace=wrap;rounded=0;spacingLeft=5;fontStyle=1" vertex="1" parent="1">
          <mxGeometry x="360" y="650" width="70" height="20" as="geometry" />
        </mxCell>
        <mxCell id="QgBrxl4_QCWRq82KucZh-180" value="" style="edgeStyle=entityRelationEdgeStyle;fontSize=12;html=1;endArrow=ERoneToMany;rounded=0;strokeColor=default;exitX=1;exitY=0.75;exitDx=0;exitDy=0;entryX=0;entryY=0.5;entryDx=0;entryDy=0;" edge="1" parent="1" source="QgBrxl4_QCWRq82KucZh-102" target="QgBrxl4_QCWRq82KucZh-170">
          <mxGeometry width="100" height="100" relative="1" as="geometry">
            <mxPoint x="690" y="670" as="sourcePoint" />
            <mxPoint x="790" y="570" as="targetPoint" />
          </mxGeometry>
        </mxCell>
        <mxCell id="QgBrxl4_QCWRq82KucZh-181" value="" style="edgeStyle=entityRelationEdgeStyle;fontSize=12;html=1;endArrow=ERoneToMany;rounded=0;strokeColor=default;exitX=1;exitY=0.5;exitDx=0;exitDy=0;entryX=0;entryY=0;entryDx=0;entryDy=0;" edge="1" parent="1" source="QgBrxl4_QCWRq82KucZh-170">
          <mxGeometry width="100" height="100" relative="1" as="geometry">
            <mxPoint x="600" y="800" as="sourcePoint" />
            <mxPoint x="640" y="580" as="targetPoint" />
          </mxGeometry>
        </mxCell>
        <mxCell id="QgBrxl4_QCWRq82KucZh-184" value="" style="rounded=0;whiteSpace=wrap;html=1;strokeColor=default;" vertex="1" parent="1">
          <mxGeometry x="980" y="720" width="220" height="160" as="geometry" />
        </mxCell>
        <mxCell id="QgBrxl4_QCWRq82KucZh-185" value="PaperVersion" style="text;html=1;strokeColor=default;fillColor=none;align=center;verticalAlign=middle;whiteSpace=wrap;rounded=0;" vertex="1" parent="1">
          <mxGeometry x="980" y="720" width="220" height="30" as="geometry" />
        </mxCell>
        <mxCell id="QgBrxl4_QCWRq82KucZh-186" value="PaperVersionID" style="text;html=1;strokeColor=none;fillColor=none;align=left;verticalAlign=middle;whiteSpace=wrap;rounded=0;spacingLeft=5;fontStyle=1" vertex="1" parent="1">
          <mxGeometry x="1050" y="750" width="150" height="20" as="geometry" />
        </mxCell>
        <mxCell id="QgBrxl4_QCWRq82KucZh-187" value="PK int" style="text;html=1;strokeColor=none;fillColor=none;align=left;verticalAlign=middle;whiteSpace=wrap;rounded=0;spacingLeft=5;fontStyle=1" vertex="1" parent="1">
          <mxGeometry x="980" y="750" width="70" height="20" as="geometry" />
        </mxCell>
        <mxCell id="QgBrxl4_QCWRq82KucZh-188" value="PaperID" style="text;html=1;strokeColor=none;fillColor=none;align=left;verticalAlign=middle;whiteSpace=wrap;rounded=0;spacingLeft=5;fontStyle=0" vertex="1" parent="1">
          <mxGeometry x="1050" y="770" width="150" height="20" as="geometry" />
        </mxCell>
        <mxCell id="QgBrxl4_QCWRq82KucZh-189" value="FK int" style="text;html=1;strokeColor=none;fillColor=none;align=left;verticalAlign=middle;whiteSpace=wrap;rounded=0;spacingLeft=5;fontStyle=1" vertex="1" parent="1">
          <mxGeometry x="980" y="770" width="70" height="20" as="geometry" />
        </mxCell>
        <mxCell id="QgBrxl4_QCWRq82KucZh-190" value="CurrentVersion" style="text;html=1;strokeColor=none;fillColor=none;align=left;verticalAlign=middle;whiteSpace=wrap;rounded=0;spacingLeft=5;fontStyle=0" vertex="1" parent="1">
          <mxGeometry x="710" y="582.5" width="170" height="20" as="geometry" />
        </mxCell>
        <mxCell id="QgBrxl4_QCWRq82KucZh-191" value="FK int" style="text;html=1;strokeColor=none;fillColor=none;align=left;verticalAlign=middle;whiteSpace=wrap;rounded=0;spacingLeft=5;fontStyle=1" vertex="1" parent="1">
          <mxGeometry x="640" y="582.5" width="70" height="20" as="geometry" />
        </mxCell>
        <mxCell id="QgBrxl4_QCWRq82KucZh-192" value="Version" style="text;html=1;strokeColor=none;fillColor=none;align=left;verticalAlign=middle;whiteSpace=wrap;rounded=0;spacingLeft=5;fontStyle=0" vertex="1" parent="1">
          <mxGeometry x="1050" y="790" width="150" height="20" as="geometry" />
        </mxCell>
        <mxCell id="QgBrxl4_QCWRq82KucZh-193" value="int" style="text;html=1;strokeColor=none;fillColor=none;align=left;verticalAlign=middle;whiteSpace=wrap;rounded=0;spacingLeft=5;fontStyle=0" vertex="1" parent="1">
          <mxGeometry x="980" y="790" width="70" height="20" as="geometry" />
        </mxCell>
        <mxCell id="QgBrxl4_QCWRq82KucZh-194" value="" style="edgeStyle=entityRelationEdgeStyle;fontSize=12;html=1;endArrow=ERoneToMany;rounded=0;strokeColor=default;entryX=1.021;entryY=0.6;entryDx=0;entryDy=0;entryPerimeter=0;" edge="1" parent="1" target="QgBrxl4_QCWRq82KucZh-121">
          <mxGeometry width="100" height="100" relative="1" as="geometry">
            <mxPoint x="1190" y="60" as="sourcePoint" />
            <mxPoint x="1230" y="490" as="targetPoint" />
          </mxGeometry>
        </mxCell>
        <mxCell id="QgBrxl4_QCWRq82KucZh-196" value="" style="rounded=0;whiteSpace=wrap;html=1;strokeColor=default;" vertex="1" parent="1">
          <mxGeometry x="1110" y="555" width="180" height="95" as="geometry" />
        </mxCell>
        <mxCell id="QgBrxl4_QCWRq82KucZh-197" value="Keywords" style="text;html=1;strokeColor=default;fillColor=none;align=center;verticalAlign=middle;whiteSpace=wrap;rounded=0;" vertex="1" parent="1">
          <mxGeometry x="1110" y="555" width="180" height="30" as="geometry" />
        </mxCell>
        <mxCell id="QgBrxl4_QCWRq82KucZh-198" value="KeywordID" style="text;html=1;strokeColor=none;fillColor=none;align=left;verticalAlign=middle;whiteSpace=wrap;rounded=0;spacingLeft=5;fontStyle=1" vertex="1" parent="1">
          <mxGeometry x="1190" y="585" width="100" height="20" as="geometry" />
        </mxCell>
        <mxCell id="QgBrxl4_QCWRq82KucZh-199" value="PK int" style="text;html=1;strokeColor=none;fillColor=none;align=left;verticalAlign=middle;whiteSpace=wrap;rounded=0;spacingLeft=5;fontStyle=1" vertex="1" parent="1">
          <mxGeometry x="1110" y="585" width="70" height="20" as="geometry" />
        </mxCell>
        <mxCell id="QgBrxl4_QCWRq82KucZh-200" value="string" style="text;html=1;strokeColor=none;fillColor=none;align=left;verticalAlign=middle;whiteSpace=wrap;rounded=0;spacingLeft=5;fontStyle=0" vertex="1" parent="1">
          <mxGeometry x="1110" y="605" width="70" height="20" as="geometry" />
        </mxCell>
        <mxCell id="QgBrxl4_QCWRq82KucZh-201" value="Name" style="text;html=1;strokeColor=none;fillColor=none;align=left;verticalAlign=middle;whiteSpace=wrap;rounded=0;spacingLeft=5;fontStyle=0" vertex="1" parent="1">
          <mxGeometry x="1190" y="605" width="100" height="20" as="geometry" />
        </mxCell>
        <mxCell id="QgBrxl4_QCWRq82KucZh-202" value="" style="endArrow=none;html=1;rounded=0;entryX=1;entryY=0;entryDx=0;entryDy=0;exitX=0.391;exitY=1;exitDx=0;exitDy=0;exitPerimeter=0;" edge="1" parent="1" target="QgBrxl4_QCWRq82KucZh-199" source="QgBrxl4_QCWRq82KucZh-196">
          <mxGeometry width="50" height="50" relative="1" as="geometry">
            <mxPoint x="1180" y="635" as="sourcePoint" />
            <mxPoint x="930" y="805" as="targetPoint" />
          </mxGeometry>
        </mxCell>
        <mxCell id="QgBrxl4_QCWRq82KucZh-204" value="PaperVersionID" style="text;html=1;strokeColor=none;fillColor=none;align=left;verticalAlign=middle;whiteSpace=wrap;rounded=0;spacingLeft=5;fontStyle=0" vertex="1" parent="1">
          <mxGeometry x="1190" y="625" width="100" height="20" as="geometry" />
        </mxCell>
        <mxCell id="QgBrxl4_QCWRq82KucZh-205" value="FinalVersion" style="text;html=1;strokeColor=none;fillColor=none;align=left;verticalAlign=middle;whiteSpace=wrap;rounded=0;spacingLeft=5;fontStyle=0" vertex="1" parent="1">
          <mxGeometry x="710" y="602.5" width="170" height="20" as="geometry" />
        </mxCell>
        <mxCell id="QgBrxl4_QCWRq82KucZh-206" value="FK int" style="text;html=1;strokeColor=none;fillColor=none;align=left;verticalAlign=middle;whiteSpace=wrap;rounded=0;spacingLeft=5;fontStyle=1" vertex="1" parent="1">
          <mxGeometry x="640" y="602.5" width="70" height="20" as="geometry" />
        </mxCell>
        <mxCell id="QgBrxl4_QCWRq82KucZh-207" value="Title" style="text;html=1;strokeColor=none;fillColor=none;align=left;verticalAlign=middle;whiteSpace=wrap;rounded=0;spacingLeft=5;fontStyle=0" vertex="1" parent="1">
          <mxGeometry x="1050" y="810" width="150" height="20" as="geometry" />
        </mxCell>
        <mxCell id="QgBrxl4_QCWRq82KucZh-208" value="string" style="text;html=1;strokeColor=none;fillColor=none;align=left;verticalAlign=middle;whiteSpace=wrap;rounded=0;spacingLeft=5;fontStyle=0" vertex="1" parent="1">
          <mxGeometry x="980" y="810" width="70" height="20" as="geometry" />
        </mxCell>
        <mxCell id="QgBrxl4_QCWRq82KucZh-209" value="Abstract" style="text;html=1;strokeColor=none;fillColor=none;align=left;verticalAlign=middle;whiteSpace=wrap;rounded=0;spacingLeft=5;fontStyle=0" vertex="1" parent="1">
          <mxGeometry x="1050" y="830" width="150" height="20" as="geometry" />
        </mxCell>
        <mxCell id="QgBrxl4_QCWRq82KucZh-210" value="string" style="text;html=1;strokeColor=none;fillColor=none;align=left;verticalAlign=middle;whiteSpace=wrap;rounded=0;spacingLeft=5;fontStyle=0" vertex="1" parent="1">
          <mxGeometry x="980" y="830" width="70" height="20" as="geometry" />
        </mxCell>
        <mxCell id="QgBrxl4_QCWRq82KucZh-211" value="FK int" style="text;html=1;strokeColor=none;fillColor=none;align=left;verticalAlign=middle;whiteSpace=wrap;rounded=0;spacingLeft=5;fontStyle=1" vertex="1" parent="1">
          <mxGeometry x="1110" y="622.5" width="70" height="20" as="geometry" />
        </mxCell>
        <mxCell id="QgBrxl4_QCWRq82KucZh-212" value="" style="edgeStyle=entityRelationEdgeStyle;fontSize=12;html=1;endArrow=ERoneToMany;rounded=0;strokeColor=default;exitX=1;exitY=0.75;exitDx=0;exitDy=0;" edge="1" parent="1" source="QgBrxl4_QCWRq82KucZh-185">
          <mxGeometry width="100" height="100" relative="1" as="geometry">
            <mxPoint x="700" y="810" as="sourcePoint" />
            <mxPoint x="1110" y="630" as="targetPoint" />
          </mxGeometry>
        </mxCell>
        <mxCell id="QgBrxl4_QCWRq82KucZh-213" value="Accepted" style="text;html=1;strokeColor=none;fillColor=none;align=left;verticalAlign=middle;whiteSpace=wrap;rounded=0;spacingLeft=5;fontStyle=0" vertex="1" parent="1">
          <mxGeometry x="710" y="622.5" width="170" height="20" as="geometry" />
        </mxCell>
        <mxCell id="QgBrxl4_QCWRq82KucZh-214" value="bool" style="text;html=1;strokeColor=none;fillColor=none;align=left;verticalAlign=middle;whiteSpace=wrap;rounded=0;spacingLeft=5;fontStyle=0" vertex="1" parent="1">
          <mxGeometry x="640" y="622.5" width="70" height="20" as="geometry" />
        </mxCell>
        <mxCell id="QgBrxl4_QCWRq82KucZh-215" value="SessionID" style="text;html=1;strokeColor=none;fillColor=none;align=left;verticalAlign=middle;whiteSpace=wrap;rounded=0;spacingLeft=5;fontStyle=0" vertex="1" parent="1">
          <mxGeometry x="710" y="642.5" width="170" height="20" as="geometry" />
        </mxCell>
        <mxCell id="QgBrxl4_QCWRq82KucZh-216" value="FK int" style="text;html=1;strokeColor=none;fillColor=none;align=left;verticalAlign=middle;whiteSpace=wrap;rounded=0;spacingLeft=5;fontStyle=1" vertex="1" parent="1">
          <mxGeometry x="640" y="642.5" width="70" height="20" as="geometry" />
        </mxCell>
        <mxCell id="QgBrxl4_QCWRq82KucZh-217" value="Document" style="text;html=1;strokeColor=none;fillColor=none;align=left;verticalAlign=middle;whiteSpace=wrap;rounded=0;spacingLeft=5;fontStyle=0" vertex="1" parent="1">
          <mxGeometry x="1050" y="850" width="150" height="20" as="geometry" />
        </mxCell>
        <mxCell id="QgBrxl4_QCWRq82KucZh-219" value="bytea" style="text;html=1;strokeColor=none;fillColor=none;align=left;verticalAlign=middle;whiteSpace=wrap;rounded=0;spacingLeft=5;fontStyle=0" vertex="1" parent="1">
          <mxGeometry x="980" y="850" width="70" height="20" as="geometry" />
        </mxCell>
        <mxCell id="QgBrxl4_QCWRq82KucZh-220" value="" style="rounded=0;whiteSpace=wrap;html=1;strokeColor=default;" vertex="1" parent="1">
          <mxGeometry x="620" y="820" width="210" height="100" as="geometry" />
        </mxCell>
        <mxCell id="QgBrxl4_QCWRq82KucZh-221" value="ReviewerToPaper" style="text;html=1;strokeColor=default;fillColor=none;align=center;verticalAlign=middle;whiteSpace=wrap;rounded=0;" vertex="1" parent="1">
          <mxGeometry x="620" y="820" width="210" height="30" as="geometry" />
        </mxCell>
        <mxCell id="QgBrxl4_QCWRq82KucZh-222" value="" style="edgeStyle=entityRelationEdgeStyle;fontSize=12;html=1;endArrow=ERoneToMany;rounded=0;strokeColor=default;exitX=1;exitY=0.75;exitDx=0;exitDy=0;" edge="1" parent="1" source="QgBrxl4_QCWRq82KucZh-215">
          <mxGeometry width="100" height="100" relative="1" as="geometry">
            <mxPoint x="600" y="650" as="sourcePoint" />
            <mxPoint x="620" y="840" as="targetPoint" />
          </mxGeometry>
        </mxCell>
        <mxCell id="QgBrxl4_QCWRq82KucZh-223" value="" style="edgeStyle=entityRelationEdgeStyle;fontSize=12;html=1;endArrow=ERoneToMany;rounded=0;strokeColor=default;exitX=1;exitY=0.75;exitDx=0;exitDy=0;entryX=0;entryY=0.357;entryDx=0;entryDy=0;entryPerimeter=0;" edge="1" parent="1" source="QgBrxl4_QCWRq82KucZh-105" target="QgBrxl4_QCWRq82KucZh-220">
          <mxGeometry width="100" height="100" relative="1" as="geometry">
            <mxPoint x="460" y="840" as="sourcePoint" />
            <mxPoint x="560" y="740" as="targetPoint" />
          </mxGeometry>
        </mxCell>
        <mxCell id="QgBrxl4_QCWRq82KucZh-224" value="ReviewerToPaperID" style="text;html=1;strokeColor=none;fillColor=none;align=left;verticalAlign=middle;whiteSpace=wrap;rounded=0;spacingLeft=5;fontStyle=1" vertex="1" parent="1">
          <mxGeometry x="690" y="850" width="140" height="20" as="geometry" />
        </mxCell>
        <mxCell id="QgBrxl4_QCWRq82KucZh-225" value="PK int" style="text;html=1;strokeColor=none;fillColor=none;align=left;verticalAlign=middle;whiteSpace=wrap;rounded=0;spacingLeft=5;fontStyle=1" vertex="1" parent="1">
          <mxGeometry x="620" y="850" width="70" height="20" as="geometry" />
        </mxCell>
        <mxCell id="QgBrxl4_QCWRq82KucZh-230" value="PaperID" style="text;html=1;strokeColor=none;fillColor=none;align=left;verticalAlign=middle;whiteSpace=wrap;rounded=0;spacingLeft=5;fontStyle=0" vertex="1" parent="1">
          <mxGeometry x="690" y="870" width="140" height="20" as="geometry" />
        </mxCell>
        <mxCell id="QgBrxl4_QCWRq82KucZh-231" value="FK int" style="text;html=1;strokeColor=none;fillColor=none;align=left;verticalAlign=middle;whiteSpace=wrap;rounded=0;spacingLeft=5;fontStyle=1" vertex="1" parent="1">
          <mxGeometry x="620" y="870" width="70" height="20" as="geometry" />
        </mxCell>
        <mxCell id="QgBrxl4_QCWRq82KucZh-232" value="ReviewerParticipationID" style="text;html=1;strokeColor=none;fillColor=none;align=left;verticalAlign=middle;whiteSpace=wrap;rounded=0;spacingLeft=5;fontStyle=0" vertex="1" parent="1">
          <mxGeometry x="690" y="890" width="140" height="20" as="geometry" />
        </mxCell>
        <mxCell id="QgBrxl4_QCWRq82KucZh-233" value="FK int" style="text;html=1;strokeColor=none;fillColor=none;align=left;verticalAlign=middle;whiteSpace=wrap;rounded=0;spacingLeft=5;fontStyle=1" vertex="1" parent="1">
          <mxGeometry x="620" y="890" width="70" height="20" as="geometry" />
        </mxCell>
      </root>
    </mxGraphModel>
  </diagram>
</mxfile>
